Coordinates
version=1
nRows=10
nColumns=22
inDegrees=yes

Units are S.I. units (second, meters, Newtons, ...)
If the header above contains a line with 'inDegrees', this indicates whether rotational values are in degrees (yes) or radians (no).

endheader
time	pelvis_tilt	pelvis_list	pelvis_rotation	pelvis_tx	pelvis_ty	pelvis_tz	hip_flexion_r	hip_adduction_r	hip_rotation_r	knee_angle_r	ankle_angle_r	subtalar_angle_r	hip_flexion_l	hip_adduction_l	hip_rotation_l	knee_angle_l	ankle_angle_l	subtalar_angle_l	lumbar_extension	lumbar_bending	lumbar_rotation
      2.43000000	     -7.05836109	    -11.01231902	     -2.58411986	     -0.09689524	      0.95430770	      0.28270264	      2.29097463	     15.41679508	     -0.43349620	    -17.66259478	     25.11490981	     -5.75496371	     41.74681590	    -10.71029572	     -3.63337892	    -23.92450938	     10.96658159	      9.07111504	     -6.52962334	     13.23480389	     11.93868444
      2.44000000	     -6.96150139	    -10.99398915	     -2.62648478	     -0.08656522	      0.95266175	      0.28234955	      1.64637948	     15.33305284	     -0.33481770	    -17.96398006	     25.53835004	     -5.56812652	     41.73180685	    -10.50605428	     -3.33666535	    -24.04451936	     10.99032186	      9.02706718	     -6.48760423	     13.17890109	     11.85915771
      2.45000000	     -6.86387088	    -10.90997988	     -2.66808477	     -0.07613991	      0.95113962	      0.28190028	      1.05965866	     15.16732513	     -0.22413053	    -18.38165597	     25.88439124	     -5.21883933	     41.69022548	    -10.23120402	     -2.95209244	    -24.44112305	     10.85508132	      8.84285131	     -6.43632204	     13.05287012	     11.74292972
      2.46000000	     -6.83045061	    -10.77755761	     -2.71603506	     -0.06560094	      0.94964059	      0.28136937	      0.57781132	     14.94128958	     -0.11268137	    -18.87131007	     26.19407207	     -4.83323383	     41.72187762	     -9.90786867	     -2.51655872	    -25.13033529	     10.52937335	      8.51816454	     -6.29108570	     12.88033293	     11.63673727
      2.47000000	     -6.82933744	    -10.58467020	     -2.75587298	     -0.05494870	      0.94826192	      0.28073953	      0.17634500	     14.64143115	     -0.00636581	    -19.44436605	     26.43248579	     -4.39162794	     41.77661459	     -9.51912067	     -2.04490269	    -26.03277897	     10.00145195	      8.05500386	     -6.09184763	     12.64588212	     11.49955337
      2.48000000	     -6.84375512	    -10.36552204	     -2.80212999	     -0.04416968	      0.94705747	      0.28006354	     -0.18088977	     14.30806039	      0.14000390	    -20.07435388	     26.60693148	     -3.74366783	     41.84892448	     -9.11611060	     -1.57133594	    -27.11816950	      9.33103271	      7.35206583	     -5.86297559	     12.38325659	     11.38272320
      2.49000000	     -6.86159582	    -10.06459118	     -2.81479405	     -0.03325443	      0.94608037	      0.27923369	     -0.47882492	     13.87606728	      0.24373942	    -20.79406494	     26.67534139	     -3.08870066	     41.90246155	     -8.62336296	     -1.12487233	    -28.28630074	      8.55358706	      6.61723360	     -5.61079982	     12.04012165	     11.20872739
      2.50000000	     -6.86899429	     -9.70642490	     -2.81452376	     -0.02218201	      0.94537249	      0.27833863	     -0.74204442	     13.37641033	      0.32819211	    -21.59161646	     26.64006307	     -2.32141210	     41.92238871	     -8.08991526	     -0.74309175	    -29.50128225	      7.80014596	      5.80875295	     -5.35609806	     11.62915049	     11.02480857
      2.51000000	     -6.85759495	     -9.29351157	     -2.80802665	     -0.01097399	      0.94497601	      0.27736994	     -0.96992075	     12.81401835	      0.42198628	    -22.48052790	     26.47215469	     -1.40742656	     41.87762381	     -7.52126149	     -0.43378357	    -30.69411756	      7.15382350	      4.94772829	     -5.11540470	     11.16087966	     10.84236258
      2.52000000	     -6.82802715	     -8.83051984	     -2.80008975	      0.00035944	      0.94488001	      0.27633774	     -1.14613416	     12.19113505	      0.48799590	    -23.48686126	     26.19077996	     -0.37433098	     41.75725910	     -6.92819215	     -0.22727054	    -31.82449464	      6.68847767	      4.06882226	     -4.89136626	     10.64014311	     10.67420270
